# xmcd CD database file
#
# Track frame offsets:
#	150
#	16245
#	33864
#
# Disc length: 808 seconds
#
# Revision: 0
# Processed by: cddbd v1.5.1PL0 Copyright (c) Steve Scherf et al.
# Submitted via: CDex 1.40Release
#
DISCID=15032603
DTITLE=RHYMESTER - 逃走のファンク
DYEAR=2005
DGENRE=JPop
TTITLE0=逃走のファンク
TTITLE1=REDZONE
TTITLE2=REDZONE -Freestyle-
EXTD=YEAR: 2005
EXTT0=
EXTT1=
EXTT2=
PLAYORDER=
